name analog
datacolumns 19
datarows 55
range 0.406 0.433
endheader
time	ground_force_vx	ground_force_vy	ground_force_vz	ground_force_px	ground_force_py	ground_force_pz	l_ground_force_vx	l_ground_force_vy	l_ground_force_vz	l_ground_force_px	l_ground_force_py	l_ground_force_pz	ground_torque_x	ground_torque_y	ground_torque_z	l_ground_torque_x	l_ground_torque_y	l_ground_torque_z
0.406	-0.0	-0.0	-0.0	3.4388623237609863	5.488609313964844	-364.6639099121094	-1.057692289352417	-4.981666564941406	-394.37347412109375	-0.0	-0.0	-0.0	-0.0	-0.0	-0.0	114408.890625	2624.74462890625	-11005.0908203125
0.40650000000000003	-0.0	-0.0	-0.0	3.43871545791626	5.385543823242188	-365.7341003417969	-1.4127302169799805	-4.903506755828857	-393.9980163574219	-0.0	-0.0	-0.0	-0.0	-0.0	-0.0	114489.546875	2700.057861328125	-10936.2255859375
0.40700000000000003	-0.0	-0.0	-0.0	3.525124311447144	4.853682518005371	-364.1285400390625	-1.41937255859375	-4.988582611083984	-393.4687194824219	-0.0	-0.0	-0.0	-0.0	-0.0	-0.0	114667.515625	2430.357421875	-10831.7919921875
0.40750000000000003	-0.0	-0.0	-0.0	3.481682777404785	4.723911285400391	-364.1383056640625	-1.4560906887054443	-5.119616508483887	-392.8075866699219	-0.0	-0.0	-0.0	-0.0	-0.0	-0.0	114376.03125	2723.26416015625	-10948.3671875
0.40800000000000003	-0.0	-0.0	-0.0	3.339458703994751	4.545650482177734	-363.9660339355469	-1.4652063846588137	-5.037280082702637	-393.8314208984375	-0.0	-0.0	-0.0	-0.0	-0.0	-0.0	114367.796875	2662.941162109375	-10950.3310546875
0.40850000000000003	-0.0	-0.0	-0.0	3.785815715789795	4.547900676727295	-364.8437805175781	-1.4594743251800537	-5.077085494995117	-393.3025512695313	-0.0	-0.0	-0.0	-0.0	-0.0	-0.0	114474.109375	2811.462890625	-10951.2021484375
0.40900000000000003	-0.0	-0.0	-0.0	3.875390529632568	4.997616767883301	-364.4900512695313	-1.825298309326172	-5.342122554779053	-394.0229187011719	-0.0	-0.0	-0.0	-0.0	-0.0	-0.0	114459.21875	2786.123779296875	-11022.396484375
0.40950000000000003	-0.0	-0.0	-0.0	3.34840726852417	4.769479751586914	-362.0173950195313	-2.1695239543914795	-5.475944519042969	-395.40911865234375	-0.0	-0.0	-0.0	-0.0	-0.0	-0.0	114659.7265625	2889.07958984375	-11127.81640625
0.41000000000000003	-0.0	-0.0	-0.0	3.482935905456543	5.3496856689453125	-361.8144226074219	-2.0378994941711426	-5.655025959014893	-396.0980529785156	-0.0	-0.0	-0.0	-0.0	-0.0	-0.0	114705.9609375	2810.077392578125	-11157.3837890625
0.41050000000000003	-0.0	-0.0	-0.0	3.1713852882385254	4.460046768188477	-362.18951416015625	-2.172238826751709	-5.733887672424316	-395.04193115234375	-0.0	-0.0	-0.0	-0.0	-0.0	-0.0	114777.3046875	2769.408447265625	-11172.69140625
0.41100000000000003	-0.0	-0.0	-0.0	2.6697428226470947	4.718986511230469	-363.0429382324219	-2.044807910919189	-5.691198348999023	-395.4098205566406	-0.0	-0.0	-0.0	-0.0	-0.0	-0.0	114902.1328125	2721.45947265625	-11246.31640625
0.41150000000000003	-0.0	-0.0	-0.0	2.4585299491882324	4.631788730621338	-362.8894348144531	-2.2177696228027344	-5.519067287445068	-395.75927734375	-0.0	-0.0	-0.0	-0.0	-0.0	-0.0	115158.640625	2743.12109375	-11274.6181640625
0.41200000000000003	-0.0	-0.0	-0.0	2.1877567768096924	4.592313289642334	-363.0523681640625	-2.2237329483032227	-5.517136573791504	-397.6993713378906	-0.0	-0.0	-0.0	-0.0	-0.0	-0.0	115422.5390625	2858.229736328125	-11289.8173828125
0.41250000000000003	-0.0	-0.0	-0.0	2.1862964630126958	4.275705814361572	-362.8847961425781	-2.5291907787323	-5.658163547515869	-398.3746337890625	-0.0	-0.0	-0.0	-0.0	-0.0	-0.0	115199.1953125	2926.89306640625	-11378.458984375
0.41300000000000003	-0.0	-0.0	-0.0	2.185091495513916	4.325652122497559	-363.247802734375	-2.616107225418091	-5.780784606933594	-399.1006164550781	-0.0	-0.0	-0.0	-0.0	-0.0	-0.0	115505.703125	2864.194091796875	-11425.13671875
0.41350000000000003	-0.0	-0.0	-0.0	2.0959298610687256	4.544617176055908	-360.7753601074219	-2.970999002456665	-5.695940017700195	-398.3820190429688	-0.0	-0.0	-0.0	-0.0	-0.0	-0.0	115764.609375	2700.618408203125	-11570.3623046875
0.41400000000000003	-0.0	-0.0	-0.0	2.053618907928467	4.678014278411865	-360.7680358886719	-3.06274151802063	-5.737963199615479	-399.4177856445313	-0.0	-0.0	-0.0	-0.0	-0.0	-0.0	115799.078125	2925.539306640625	-11602.76953125
0.41450000000000004	-0.0	-0.0	-0.0	2.3194732666015625	4.279049396514893	-362.7158203125	-2.8810269832611084	-5.604986190795898	-400.4769287109375	-0.0	-0.0	-0.0	-0.0	-0.0	-0.0	116159.328125	2877.843505859375	-11542.322265625
0.41500000000000004	-0.0	-0.0	-0.0	2.497225284576416	4.411620616912842	-361.8368225097656	-3.1061387062072754	-5.696120738983154	-400.3147583007813	-0.0	-0.0	-0.0	-0.0	-0.0	-0.0	116393.7578125	2837.707763671875	-11514.146484375
0.41550000000000004	-0.0	-0.0	-0.0	2.096185207366944	4.057785987854004	-362.7158203125	-2.9274559020996094	-5.389845848083496	-401.0028381347656	-0.0	-0.0	-0.0	-0.0	-0.0	-0.0	116409.0703125	2645.353271484375	-11541.642578125
0.41600000000000004	-0.0	-0.0	-0.0	1.8717193603515625	4.277834415435791	-360.5950317382813	-2.6164586544036865	-5.607919692993164	-401.17919921875	-0.0	-0.0	-0.0	-0.0	-0.0	-0.0	116753.734375	2893.247314453125	-11498.953125
0.4165	-0.0	-0.0	-0.0	2.007084608078003	4.188522338867188	-361.6550903320313	-3.0609710216522217	-5.566053867340088	-400.314697265625	-0.0	-0.0	-0.0	-0.0	-0.0	-0.0	116750.6640625	2839.85498046875	-11542.9033203125
0.417	-0.0	-0.0	-0.0	2.0966837406158447	4.0107102394104	-360.5998229980469	-3.234555244445801	-5.298551559448242	-401.3512878417969	-0.0	-0.0	-0.0	-0.0	-0.0	-0.0	116801.90625	2919.202392578125	-11750.1015625
0.4175	-0.0	-0.0	-0.0	1.9181159734725952	4.36768913269043	-362.5395812988281	-3.193588256835937	-5.299953937530518	-400.4820861816406	-0.0	-0.0	-0.0	-0.0	-0.0	-0.0	116867.8359375	2833.311767578125	-11691.46875
0.418	-0.0	-0.0	-0.0	1.7399907112121582	4.322867393493652	-361.8326721191406	-3.193077564239502	-5.432037830352783	-401.5143432617188	-0.0	-0.0	-0.0	-0.0	-0.0	-0.0	116776.5	2746.6064453125	-11765.3583984375
0.4185	-0.0	-0.0	-0.0	1.784210205078125	4.412596702575684	-363.9530334472656	-3.016580104827881	-5.78486442565918	-402.5751037597656	-0.0	-0.0	-0.0	-0.0	-0.0	-0.0	116995.046875	2698.494873046875	-11720.9111328125
0.419	-0.0	-0.0	-0.0	1.3375470638275146	4.277039051055908	-362.1854248046875	-3.1045849323272705	-5.784633636474609	-403.2712707519531	-0.0	-0.0	-0.0	-0.0	-0.0	-0.0	117061.1484375	2694.22900390625	-11676.5263671875
0.4195	-0.0	-0.0	-0.0	1.5609583854675293	4.366488456726074	-364.1338806152344	-3.193883419036865	-5.828937530517578	-403.7958984375	-0.0	-0.0	-0.0	-0.0	-0.0	-0.0	117327.8203125	2863.604736328125	-11780.3759765625
0.42	-0.0	-0.0	-0.0	1.3813908100128174	4.277710914611816	-364.48388671875	-3.282399654388428	-5.696773529052734	-404.1430969238281	-0.0	-0.0	-0.0	-0.0	-0.0	-0.0	117518.84375	2742.5517578125	-11795.212890625
0.4205	-0.0	-0.0	-0.0	1.291875958442688	4.187788963317871	-364.30908203125	-2.9717049598693848	-5.829372406005859	-404.4925842285156	-0.0	-0.0	-0.0	-0.0	-0.0	-0.0	117592.296875	2701.57568359375	-11854.3193359375
0.421	-0.0	-0.0	-0.0	1.4715652465820312	3.833422899246216	-364.3002624511719	-3.0608456134796143	-5.785177707672119	-404.48834228515625	-0.0	-0.0	-0.0	-0.0	-0.0	-0.0	117820.78125	2812.80126953125	-11913.7216796875
0.4215	-0.0	-0.0	-0.0	1.5598127841949463	4.277346134185791	-364.4853515625	-3.3271238803863525	-6.271774291992188	-405.3650512695313	-0.0	-0.0	-0.0	-0.0	-0.0	-0.0	117980.46875	2537.147216796875	-12003.3251953125
0.422	-0.0	-0.0	-0.0	1.026450753211975	3.653287649154663	-364.8390502929688	-3.1485462188720703	-6.2264509201049805	-406.5861511230469	-0.0	-0.0	-0.0	-0.0	-0.0	-0.0	117980.140625	3041.2353515625	-12002.8486328125
0.4225	-0.0	-0.0	-0.0	0.983632504940033	3.788620710372925	-366.0687255859375	-2.7505903244018555	-6.005874633789063	-407.11077880859375	-0.0	-0.0	-0.0	-0.0	-0.0	-0.0	118131.7578125	2742.84765625	-11884.39453125
0.423	-0.0	-0.0	-0.0	1.5643843412399292	3.9204585552215576	-365.7102355957031	-2.794051170349121	-5.740909576416016	-406.2392578125	-0.0	-0.0	-0.0	-0.0	-0.0	-0.0	118116.8984375	2625.0517578125	-11839.3984375
0.4235	-0.0	-0.0	-0.0	1.6086409091949463	4.010868072509766	-366.2306518554688	-2.705267906188965	-5.872982978820801	-404.8429260253906	-0.0	-0.0	-0.0	-0.0	-0.0	-0.0	118223.765625	2570.451416015625	-11557.9716796875
0.424	-0.0	-0.0	-0.0	1.6965235471725464	3.8794562816619873	-366.8045349121094	-2.126300811767578	-5.607054233551025	-406.0561218261719	-0.0	-0.0	-0.0	-0.0	-0.0	-0.0	118241.390625	2545.743408203125	-11512.27734375
0.4245	-0.0	-0.0	-0.0	1.9106206893920896	4.1453857421875	-366.9279174804688	-1.6427100896835327	-5.695195198059082	-405.72650146484375	-0.0	-0.0	-0.0	-0.0	-0.0	-0.0	118113.234375	2484.197998046875	-11586.9443359375
0.425	-0.0	-0.0	-0.0	1.6566641330718994	4.367389678955078	-368.3808898925781	-1.331847071647644	-5.520695209503174	-406.2309265136719	-0.0	-0.0	-0.0	-0.0	-0.0	-0.0	118036.9375	2530.94287109375	-11527.423828125
0.4255	-0.0	-0.0	-0.0	1.2926077842712402	4.153057098388672	-368.1788635253906	-1.643073320388794	-5.697387218475342	-406.2303466796875	-0.0	-0.0	-0.0	-0.0	-0.0	-0.0	118112.5703125	2368.72314453125	-11557.40234375
0.426	-0.0	-0.0	-0.0	1.2094290256500244	4.236743450164795	-368.0054626464844	-1.7756431102752686	-5.519394874572754	-405.1988830566406	-0.0	-0.0	-0.0	-0.0	-0.0	-0.0	118202.40625	2652.975341796875	-11541.9765625
0.4265	-0.0	-0.0	-0.0	1.203275442123413	4.68467378616333	-370.6412353515625	-1.7742156982421875	-5.607667922973633	-406.0693359375	-0.0	-0.0	-0.0	-0.0	-0.0	-0.0	118075.828125	2681.95751953125	-11600.8154296875
0.427	-0.0	-0.0	-0.0	0.8921051025390625	4.495453834533691	-369.7972717285156	-1.5097293853759766	-5.5659050941467285	-406.0633544921875	-0.0	-0.0	-0.0	-0.0	-0.0	-0.0	118141.9453125	2462.89208984375	-11454.458984375
0.4275	-0.0	-0.0	-0.0	0.5786681175231934	4.584219932556152	-370.8199157714844	-1.2889927625656128	-5.6543707847595215	-406.9327087402344	-0.0	-0.0	-0.0	-0.0	-0.0	-0.0	118476.3671875	2533.49072265625	-11496.271484375
0.428	-0.0	-0.0	-0.0	0.1734248548746109	4.991302490234375	-371.89849853515625	-0.9795947670936584	-5.737150192260742	-406.0261535644531	-0.0	-0.0	-0.0	-0.0	-0.0	-0.0	118410.1015625	2344.908935546875	-11290.267578125
0.4285	-0.0	-0.0	-0.0	-0.1351257264614105	5.069962501525879	-371.6855773925781	-0.2167539447546005	-5.387622833251953	-406.91644287109375	-0.0	-0.0	-0.0	-0.0	-0.0	-0.0	118430.921875	2475.11474609375	-11272.5146484375
0.429	-0.0	-0.0	-0.0	-0.6704616546630859	5.299114227294922	-373.8573913574219	-0.2682864665985107	-5.516888618469238	-407.1192932128906	-0.0	-0.0	-0.0	-0.0	-0.0	-0.0	118665.484375	2475.047119140625	-11229.0712890625
0.4295	-0.0	-0.0	-0.0	-0.5755727291107178	5.298967361450195	-373.6870422363281	-0.1729182302951812	-5.387622833251953	-407.6389465332031	-0.0	-0.0	-0.0	-0.0	-0.0	-0.0	118359.0703125	2361.218994140625	-11139.2099609375
0.43	-0.0	-0.0	-0.0	-0.7507656812667847	5.258693695068359	-374.17626953125	0.1342644542455673	-5.7910356521606445	-407.8185424804688	-0.0	-0.0	-0.0	-0.0	-0.0	-0.0	118422.3359375	2319.983154296875	-11019.5625
0.4305	-0.0	-0.0	-0.0	-0.1722061336040496	5.26179838180542	-375.978515625	0.3167227506637573	-5.5213470458984375	-404.9962463378906	-0.0	-0.0	-0.0	-0.0	-0.0	-0.0	118169.890625	2214.582763671875	-11037.03515625
0.431	-0.0	-0.0	-0.0	0.1816501915454864	5.750524044036865	-374.1877746582031	0.3978910148143768	-5.614935874938965	-404.8464660644531	-0.0	-0.0	-0.0	-0.0	-0.0	-0.0	117907.0078125	2252.40576171875	-11006.5029296875
0.4315	-0.0	-0.0	-0.0	0.5453877449035645	5.96836519241333	-376.1232604980469	0.7014064788818359	-5.735414028167725	-405.03759765625	-0.0	-0.0	-0.0	-0.0	-0.0	-0.0	117711.421875	2470.363037109375	-10843.6259765625
0.432	-0.0	-0.0	-0.0	0.085737831890583	5.394124031066895	-375.6549987792969	1.0673866271972656	-5.695326328277588	-404.6779479980469	-0.0	-0.0	-0.0	-0.0	-0.0	-0.0	117512.7265625	2169.688720703125	-10756.2900390625
0.4325	-0.0	-0.0	-0.0	0.6708762049674988	5.579628944396973	-375.9102478027344	1.104417085647583	-5.743875026702881	-403.6427001953125	-0.0	-0.0	-0.0	-0.0	-0.0	-0.0	117391.2421875	2285.904541015625	-10668.3818359375
0.433	-0.0	-0.0	-0.0	0.616992712020874	5.483388423919678	-375.0474853515625	1.1929104328155518	-5.570485591888428	-403.4385681152344	-0.0	-0.0	-0.0	-0.0	-0.0	-0.0	117081.0546875	2114.133544921875	-10518.0361328125
